<mxfile host="app.diagrams.net" agent="Mozilla/5.0 (Windows NT 10.0; Win64; x64) AppleWebKit/537.36 (KHTML, like Gecko) Chrome/139.0.0.0 Safari/537.36 Edg/139.0.0.0" version="28.1.0">
  <diagram name="Page-1" id="pLU3Lye65CrCqVTpMEdD">
    <mxGraphModel dx="993" dy="1197" grid="1" gridSize="10" guides="1" tooltips="1" connect="1" arrows="1" fold="1" page="1" pageScale="1" pageWidth="850" pageHeight="1100" math="0" shadow="0">
      <root>
        <mxCell id="0" />
        <mxCell id="1" parent="0" />
        <mxCell id="fQYDALx3PteQLE4Refl_-1" style="edgeStyle=none;curved=1;rounded=0;orthogonalLoop=1;jettySize=auto;html=1;exitX=0;exitY=0;exitDx=0;exitDy=0;fontSize=12;startSize=8;endSize=8;entryX=1;entryY=0.5;entryDx=0;entryDy=0;" parent="1" source="fQYDALx3PteQLE4Refl_-11" target="fQYDALx3PteQLE4Refl_-13" edge="1">
          <mxGeometry relative="1" as="geometry">
            <mxPoint x="730" y="575" as="targetPoint" />
          </mxGeometry>
        </mxCell>
        <mxCell id="fQYDALx3PteQLE4Refl_-2" style="edgeStyle=none;curved=1;rounded=0;orthogonalLoop=1;jettySize=auto;html=1;exitX=0;exitY=0.5;exitDx=0;exitDy=0;fontSize=12;startSize=8;endSize=8;entryX=0.5;entryY=1;entryDx=0;entryDy=0;" parent="1" source="fQYDALx3PteQLE4Refl_-11" target="fQYDALx3PteQLE4Refl_-14" edge="1">
          <mxGeometry relative="1" as="geometry">
            <mxPoint x="820" y="585" as="targetPoint" />
          </mxGeometry>
        </mxCell>
        <mxCell id="fQYDALx3PteQLE4Refl_-3" value="" style="edgeStyle=none;curved=1;rounded=0;orthogonalLoop=1;jettySize=auto;html=1;fontSize=12;startSize=8;endSize=8;" parent="1" source="fQYDALx3PteQLE4Refl_-11" target="fQYDALx3PteQLE4Refl_-17" edge="1">
          <mxGeometry relative="1" as="geometry" />
        </mxCell>
        <mxCell id="fQYDALx3PteQLE4Refl_-4" value="" style="edgeStyle=none;curved=1;rounded=0;orthogonalLoop=1;jettySize=auto;html=1;fontSize=12;startSize=8;endSize=8;arcSize=29;strokeWidth=1;endArrow=none;endFill=0;" parent="1" source="fQYDALx3PteQLE4Refl_-11" target="fQYDALx3PteQLE4Refl_-41" edge="1">
          <mxGeometry relative="1" as="geometry" />
        </mxCell>
        <mxCell id="fQYDALx3PteQLE4Refl_-5" value="M" style="edgeLabel;html=1;align=center;verticalAlign=middle;resizable=0;points=[];fontSize=12;" parent="fQYDALx3PteQLE4Refl_-4" vertex="1" connectable="0">
          <mxGeometry x="0.1673" y="-1" relative="1" as="geometry">
            <mxPoint y="25" as="offset" />
          </mxGeometry>
        </mxCell>
        <mxCell id="fQYDALx3PteQLE4Refl_-6" value="" style="edgeStyle=none;curved=1;rounded=0;orthogonalLoop=1;jettySize=auto;html=1;fontSize=12;startSize=8;endSize=8;arcSize=29;strokeWidth=1;endArrow=none;endFill=0;" parent="1" source="fQYDALx3PteQLE4Refl_-11" target="fQYDALx3PteQLE4Refl_-47" edge="1">
          <mxGeometry relative="1" as="geometry" />
        </mxCell>
        <mxCell id="fQYDALx3PteQLE4Refl_-7" value="N" style="edgeLabel;html=1;align=center;verticalAlign=middle;resizable=0;points=[];" parent="fQYDALx3PteQLE4Refl_-6" vertex="1" connectable="0">
          <mxGeometry x="0.0643" y="3" relative="1" as="geometry">
            <mxPoint as="offset" />
          </mxGeometry>
        </mxCell>
        <mxCell id="fQYDALx3PteQLE4Refl_-8" value="" style="edgeStyle=none;curved=1;rounded=0;orthogonalLoop=1;jettySize=auto;html=1;fontSize=12;startSize=8;endSize=8;entryX=1;entryY=0.5;entryDx=0;entryDy=0;" parent="1" source="fQYDALx3PteQLE4Refl_-11" target="fQYDALx3PteQLE4Refl_-12" edge="1">
          <mxGeometry relative="1" as="geometry" />
        </mxCell>
        <mxCell id="fQYDALx3PteQLE4Refl_-9" value="" style="edgeStyle=none;curved=1;rounded=0;orthogonalLoop=1;jettySize=auto;html=1;fontSize=12;arcSize=29;strokeWidth=1;endArrow=none;endFill=0;shape=pipe;" parent="1" source="fQYDALx3PteQLE4Refl_-11" target="fQYDALx3PteQLE4Refl_-50" edge="1">
          <mxGeometry relative="1" as="geometry" />
        </mxCell>
        <mxCell id="fQYDALx3PteQLE4Refl_-10" value="1" style="edgeLabel;html=1;align=center;verticalAlign=middle;resizable=0;points=[];fontSize=12;" parent="fQYDALx3PteQLE4Refl_-9" vertex="1" connectable="0">
          <mxGeometry x="-0.1898" y="-2" relative="1" as="geometry">
            <mxPoint as="offset" />
          </mxGeometry>
        </mxCell>
        <mxCell id="fQYDALx3PteQLE4Refl_-11" value="musician" style="rounded=0;whiteSpace=wrap;html=1;" parent="1" vertex="1">
          <mxGeometry x="585" y="625" width="120" height="60" as="geometry" />
        </mxCell>
        <mxCell id="fQYDALx3PteQLE4Refl_-12" value="name" style="ellipse;whiteSpace=wrap;html=1;" parent="1" vertex="1">
          <mxGeometry x="420" y="625" width="90" height="40" as="geometry" />
        </mxCell>
        <mxCell id="fQYDALx3PteQLE4Refl_-13" value="&lt;u&gt;ID&lt;/u&gt;" style="ellipse;whiteSpace=wrap;html=1;" parent="1" vertex="1">
          <mxGeometry x="420" y="535" width="90" height="40" as="geometry" />
        </mxCell>
        <mxCell id="fQYDALx3PteQLE4Refl_-14" value="Phone_Number" style="ellipse;whiteSpace=wrap;html=1;" parent="1" vertex="1">
          <mxGeometry x="415" y="695" width="100" height="40" as="geometry" />
        </mxCell>
        <mxCell id="fQYDALx3PteQLE4Refl_-15" style="edgeStyle=none;curved=1;rounded=0;orthogonalLoop=1;jettySize=auto;html=1;fontSize=12;startSize=8;endSize=8;" parent="1" source="fQYDALx3PteQLE4Refl_-17" target="fQYDALx3PteQLE4Refl_-18" edge="1">
          <mxGeometry relative="1" as="geometry">
            <mxPoint x="524.9999999999999" y="835" as="targetPoint" />
          </mxGeometry>
        </mxCell>
        <mxCell id="fQYDALx3PteQLE4Refl_-16" style="edgeStyle=none;curved=1;rounded=0;orthogonalLoop=1;jettySize=auto;html=1;fontSize=12;startSize=8;endSize=8;" parent="1" source="fQYDALx3PteQLE4Refl_-17" target="fQYDALx3PteQLE4Refl_-19" edge="1">
          <mxGeometry relative="1" as="geometry">
            <mxPoint x="624.9999999999999" y="825" as="targetPoint" />
          </mxGeometry>
        </mxCell>
        <mxCell id="fQYDALx3PteQLE4Refl_-17" value="Address" style="ellipse;whiteSpace=wrap;html=1;rounded=0;" parent="1" vertex="1">
          <mxGeometry x="415" y="770" width="100" height="40" as="geometry" />
        </mxCell>
        <mxCell id="fQYDALx3PteQLE4Refl_-18" value="street" style="ellipse;whiteSpace=wrap;html=1;" parent="1" vertex="1">
          <mxGeometry x="260" y="805" width="70" height="30" as="geometry" />
        </mxCell>
        <mxCell id="fQYDALx3PteQLE4Refl_-19" value="city" style="ellipse;whiteSpace=wrap;html=1;" parent="1" vertex="1">
          <mxGeometry x="265" y="735" width="70" height="30" as="geometry" />
        </mxCell>
        <mxCell id="fQYDALx3PteQLE4Refl_-20" value="" style="edgeStyle=none;curved=1;rounded=0;orthogonalLoop=1;jettySize=auto;html=1;fontSize=12;startSize=8;endSize=8;" parent="1" source="fQYDALx3PteQLE4Refl_-22" target="fQYDALx3PteQLE4Refl_-23" edge="1">
          <mxGeometry relative="1" as="geometry" />
        </mxCell>
        <mxCell id="fQYDALx3PteQLE4Refl_-21" style="edgeStyle=none;curved=1;rounded=0;orthogonalLoop=1;jettySize=auto;html=1;exitX=0.5;exitY=0;exitDx=0;exitDy=0;fontSize=12;startSize=8;endSize=8;" parent="1" source="fQYDALx3PteQLE4Refl_-22" target="fQYDALx3PteQLE4Refl_-24" edge="1">
          <mxGeometry relative="1" as="geometry">
            <mxPoint x="880" y="210" as="targetPoint" />
          </mxGeometry>
        </mxCell>
        <mxCell id="fQYDALx3PteQLE4Refl_-22" value="Instrument" style="rounded=0;whiteSpace=wrap;html=1;" parent="1" vertex="1">
          <mxGeometry x="760" y="290" width="120" height="60" as="geometry" />
        </mxCell>
        <mxCell id="fQYDALx3PteQLE4Refl_-23" value="&lt;u&gt;name&lt;/u&gt;" style="ellipse;whiteSpace=wrap;html=1;rounded=0;" parent="1" vertex="1">
          <mxGeometry x="650" y="170" width="80" height="40" as="geometry" />
        </mxCell>
        <mxCell id="fQYDALx3PteQLE4Refl_-24" value="musical_key" style="ellipse;whiteSpace=wrap;html=1;" parent="1" vertex="1">
          <mxGeometry x="850" y="170" width="80" height="40" as="geometry" />
        </mxCell>
        <mxCell id="fQYDALx3PteQLE4Refl_-25" style="edgeStyle=none;curved=1;rounded=0;orthogonalLoop=1;jettySize=auto;html=1;fontSize=12;startSize=8;endSize=8;exitX=1;exitY=0.5;exitDx=0;exitDy=0;entryX=0;entryY=0.5;entryDx=0;entryDy=0;" parent="1" source="fQYDALx3PteQLE4Refl_-30" target="fQYDALx3PteQLE4Refl_-32" edge="1">
          <mxGeometry relative="1" as="geometry">
            <mxPoint x="1155" y="565" as="targetPoint" />
            <mxPoint x="1155" y="645" as="sourcePoint" />
          </mxGeometry>
        </mxCell>
        <mxCell id="fQYDALx3PteQLE4Refl_-26" style="edgeStyle=none;curved=1;rounded=0;orthogonalLoop=1;jettySize=auto;html=1;exitX=1;exitY=1;exitDx=0;exitDy=0;fontSize=12;startSize=8;endSize=8;entryX=0;entryY=0.5;entryDx=0;entryDy=0;" parent="1" source="fQYDALx3PteQLE4Refl_-30" edge="1">
          <mxGeometry relative="1" as="geometry">
            <mxPoint x="1290" y="745" as="targetPoint" />
          </mxGeometry>
        </mxCell>
        <mxCell id="fQYDALx3PteQLE4Refl_-27" value="" style="edgeStyle=none;curved=1;rounded=0;orthogonalLoop=1;jettySize=auto;html=1;fontSize=12;startSize=8;endSize=8;arcSize=29;strokeWidth=1;endArrow=none;endFill=0;" parent="1" source="fQYDALx3PteQLE4Refl_-30" target="fQYDALx3PteQLE4Refl_-44" edge="1">
          <mxGeometry relative="1" as="geometry" />
        </mxCell>
        <mxCell id="fQYDALx3PteQLE4Refl_-28" value="1" style="edgeLabel;html=1;align=center;verticalAlign=middle;resizable=0;points=[];fontSize=12;arcSize=29;" parent="fQYDALx3PteQLE4Refl_-27" vertex="1" connectable="0">
          <mxGeometry x="0.1102" y="-1" relative="1" as="geometry">
            <mxPoint as="offset" />
          </mxGeometry>
        </mxCell>
        <mxCell id="fQYDALx3PteQLE4Refl_-29" style="edgeStyle=none;curved=1;rounded=0;orthogonalLoop=1;jettySize=auto;html=1;entryX=0;entryY=0.5;entryDx=0;entryDy=0;fontSize=12;startSize=8;endSize=8;" parent="1" source="fQYDALx3PteQLE4Refl_-30" target="fQYDALx3PteQLE4Refl_-31" edge="1">
          <mxGeometry relative="1" as="geometry" />
        </mxCell>
        <mxCell id="fQYDALx3PteQLE4Refl_-30" value="album" style="rounded=0;whiteSpace=wrap;html=1;" parent="1" vertex="1">
          <mxGeometry x="1095" y="625" width="120" height="60" as="geometry" />
        </mxCell>
        <mxCell id="fQYDALx3PteQLE4Refl_-31" value="&lt;u&gt;title&lt;/u&gt;" style="ellipse;whiteSpace=wrap;html=1;" parent="1" vertex="1">
          <mxGeometry x="1290" y="545" width="90" height="40" as="geometry" />
        </mxCell>
        <mxCell id="fQYDALx3PteQLE4Refl_-32" value="&amp;nbsp;copyright_date" style="ellipse;whiteSpace=wrap;html=1;" parent="1" vertex="1">
          <mxGeometry x="1295" y="635" width="90" height="40" as="geometry" />
        </mxCell>
        <mxCell id="fQYDALx3PteQLE4Refl_-33" value="album_identifier" style="ellipse;whiteSpace=wrap;html=1;" parent="1" vertex="1">
          <mxGeometry x="1290" y="730" width="95" height="40" as="geometry" />
        </mxCell>
        <mxCell id="fQYDALx3PteQLE4Refl_-34" style="edgeStyle=none;curved=1;rounded=0;orthogonalLoop=1;jettySize=auto;html=1;fontSize=12;startSize=8;endSize=8;entryX=0.5;entryY=0;entryDx=0;entryDy=0;exitX=0.5;exitY=1;exitDx=0;exitDy=0;" parent="1" source="fQYDALx3PteQLE4Refl_-36" target="fQYDALx3PteQLE4Refl_-38" edge="1">
          <mxGeometry relative="1" as="geometry">
            <mxPoint x="1160" y="1145" as="targetPoint" />
            <mxPoint x="1160" y="1225" as="sourcePoint" />
          </mxGeometry>
        </mxCell>
        <mxCell id="fQYDALx3PteQLE4Refl_-35" style="edgeStyle=none;curved=1;rounded=0;orthogonalLoop=1;jettySize=auto;html=1;entryX=0.5;entryY=0;entryDx=0;entryDy=0;fontSize=12;startSize=8;endSize=8;" parent="1" source="fQYDALx3PteQLE4Refl_-36" target="fQYDALx3PteQLE4Refl_-37" edge="1">
          <mxGeometry relative="1" as="geometry" />
        </mxCell>
        <mxCell id="fQYDALx3PteQLE4Refl_-36" value="song" style="rounded=0;whiteSpace=wrap;html=1;arcSize=29;" parent="1" vertex="1">
          <mxGeometry x="1095" y="975" width="120" height="60" as="geometry" />
        </mxCell>
        <mxCell id="fQYDALx3PteQLE4Refl_-37" value="&lt;u&gt;title&lt;/u&gt;" style="ellipse;whiteSpace=wrap;html=1;" parent="1" vertex="1">
          <mxGeometry x="1050" y="1130" width="90" height="40" as="geometry" />
        </mxCell>
        <mxCell id="fQYDALx3PteQLE4Refl_-38" value="author" style="ellipse;whiteSpace=wrap;html=1;" parent="1" vertex="1">
          <mxGeometry x="1170" y="1130" width="90" height="40" as="geometry" />
        </mxCell>
        <mxCell id="fQYDALx3PteQLE4Refl_-39" value="" style="edgeStyle=none;curved=1;rounded=0;orthogonalLoop=1;jettySize=auto;html=1;fontSize=12;startSize=8;endSize=8;arcSize=29;strokeWidth=1;endArrow=none;endFill=0;" parent="1" source="fQYDALx3PteQLE4Refl_-41" target="fQYDALx3PteQLE4Refl_-22" edge="1">
          <mxGeometry relative="1" as="geometry" />
        </mxCell>
        <mxCell id="fQYDALx3PteQLE4Refl_-40" value="N" style="edgeLabel;html=1;align=center;verticalAlign=middle;resizable=0;points=[];" parent="fQYDALx3PteQLE4Refl_-39" vertex="1" connectable="0">
          <mxGeometry x="0.0476" y="-2" relative="1" as="geometry">
            <mxPoint as="offset" />
          </mxGeometry>
        </mxCell>
        <mxCell id="fQYDALx3PteQLE4Refl_-41" value="Play" style="rhombus;whiteSpace=wrap;html=1;rounded=0;" parent="1" vertex="1">
          <mxGeometry x="605" y="430" width="80" height="80" as="geometry" />
        </mxCell>
        <mxCell id="fQYDALx3PteQLE4Refl_-42" value="" style="edgeStyle=none;curved=1;rounded=0;orthogonalLoop=1;jettySize=auto;html=1;fontSize=12;arcSize=29;strokeWidth=1;endArrow=none;endFill=0;shape=pipe;" parent="1" source="fQYDALx3PteQLE4Refl_-44" target="fQYDALx3PteQLE4Refl_-36" edge="1">
          <mxGeometry relative="1" as="geometry" />
        </mxCell>
        <mxCell id="fQYDALx3PteQLE4Refl_-43" value="M" style="edgeLabel;html=1;align=center;verticalAlign=middle;resizable=0;points=[];fontSize=12;" parent="fQYDALx3PteQLE4Refl_-42" vertex="1" connectable="0">
          <mxGeometry x="-0.2395" y="2" relative="1" as="geometry">
            <mxPoint x="-4" y="1" as="offset" />
          </mxGeometry>
        </mxCell>
        <mxCell id="fQYDALx3PteQLE4Refl_-44" value="has" style="rhombus;whiteSpace=wrap;html=1;rounded=0;strokeWidth=3;" parent="1" vertex="1">
          <mxGeometry x="1115" y="800" width="80" height="80" as="geometry" />
        </mxCell>
        <mxCell id="fQYDALx3PteQLE4Refl_-45" value="" style="edgeStyle=none;curved=1;rounded=0;orthogonalLoop=1;jettySize=auto;html=1;fontSize=12;arcSize=29;strokeWidth=1;endArrow=none;endFill=0;shape=pipe;" parent="1" source="fQYDALx3PteQLE4Refl_-47" target="fQYDALx3PteQLE4Refl_-36" edge="1">
          <mxGeometry relative="1" as="geometry" />
        </mxCell>
        <mxCell id="fQYDALx3PteQLE4Refl_-46" value="M" style="edgeLabel;html=1;align=center;verticalAlign=middle;resizable=0;points=[];fontSize=12;" parent="fQYDALx3PteQLE4Refl_-45" vertex="1" connectable="0">
          <mxGeometry x="0.0538" y="-2" relative="1" as="geometry">
            <mxPoint as="offset" />
          </mxGeometry>
        </mxCell>
        <mxCell id="fQYDALx3PteQLE4Refl_-47" value="perform" style="rhombus;whiteSpace=wrap;html=1;rounded=0;strokeWidth=3;strokeColor=default;fillColor=none;gradientColor=none;" parent="1" vertex="1">
          <mxGeometry x="605" y="965" width="80" height="80" as="geometry" />
        </mxCell>
        <mxCell id="fQYDALx3PteQLE4Refl_-48" value="" style="edgeStyle=none;curved=1;rounded=0;orthogonalLoop=1;jettySize=auto;html=1;fontSize=12;startSize=8;endSize=8;arcSize=29;strokeWidth=1;endArrow=none;endFill=0;" parent="1" source="fQYDALx3PteQLE4Refl_-50" target="fQYDALx3PteQLE4Refl_-30" edge="1">
          <mxGeometry relative="1" as="geometry" />
        </mxCell>
        <mxCell id="fQYDALx3PteQLE4Refl_-49" value="M" style="edgeLabel;html=1;align=center;verticalAlign=middle;resizable=0;points=[];fontSize=12;" parent="fQYDALx3PteQLE4Refl_-48" vertex="1" connectable="0">
          <mxGeometry x="-0.1894" y="-1" relative="1" as="geometry">
            <mxPoint x="1" as="offset" />
          </mxGeometry>
        </mxCell>
        <mxCell id="fQYDALx3PteQLE4Refl_-50" value="Produce" style="rhombus;whiteSpace=wrap;html=1;rounded=0;shadow=0;strokeWidth=3;" parent="1" vertex="1">
          <mxGeometry x="845" y="615" width="80" height="80" as="geometry" />
        </mxCell>
        <mxCell id="_jA5AKYHCC8LBWuma4cn-47" style="rounded=0;orthogonalLoop=1;jettySize=auto;html=1;entryX=0.5;entryY=0;entryDx=0;entryDy=0;endArrow=none;endFill=0;exitX=0.5;exitY=1;exitDx=0;exitDy=0;" edge="1" parent="1" source="_jA5AKYHCC8LBWuma4cn-50" target="_jA5AKYHCC8LBWuma4cn-51">
          <mxGeometry relative="1" as="geometry">
            <mxPoint x="1053.1425" y="2310" as="sourcePoint" />
            <mxPoint x="1009.9950000000001" y="2420" as="targetPoint" />
          </mxGeometry>
        </mxCell>
        <mxCell id="_jA5AKYHCC8LBWuma4cn-48" value="" style="edgeStyle=orthogonalEdgeStyle;rounded=0;orthogonalLoop=1;jettySize=auto;html=1;endArrow=none;endFill=0;" edge="1" parent="1" source="_jA5AKYHCC8LBWuma4cn-50" target="_jA5AKYHCC8LBWuma4cn-82">
          <mxGeometry relative="1" as="geometry" />
        </mxCell>
        <mxCell id="_jA5AKYHCC8LBWuma4cn-49" value="1" style="edgeLabel;html=1;align=center;verticalAlign=middle;resizable=0;points=[];" vertex="1" connectable="0" parent="_jA5AKYHCC8LBWuma4cn-48">
          <mxGeometry x="-0.0353" y="4" relative="1" as="geometry">
            <mxPoint as="offset" />
          </mxGeometry>
        </mxCell>
        <mxCell id="_jA5AKYHCC8LBWuma4cn-50" value="Sales_Office" style="rounded=0;whiteSpace=wrap;html=1;" vertex="1" parent="1">
          <mxGeometry x="1000" y="2250" width="120" height="60" as="geometry" />
        </mxCell>
        <mxCell id="_jA5AKYHCC8LBWuma4cn-51" value="Office_Number" style="ellipse;whiteSpace=wrap;html=1;fontStyle=4" vertex="1" parent="1">
          <mxGeometry x="940" y="2420" width="100" height="40" as="geometry" />
        </mxCell>
        <mxCell id="_jA5AKYHCC8LBWuma4cn-52" style="rounded=0;orthogonalLoop=1;jettySize=auto;html=1;endArrow=none;endFill=0;exitX=0.5;exitY=1;exitDx=0;exitDy=0;" edge="1" parent="1" source="_jA5AKYHCC8LBWuma4cn-50" target="_jA5AKYHCC8LBWuma4cn-53">
          <mxGeometry relative="1" as="geometry">
            <mxPoint x="1063.1425" y="2320" as="sourcePoint" />
            <mxPoint x="1180" y="2410" as="targetPoint" />
          </mxGeometry>
        </mxCell>
        <mxCell id="_jA5AKYHCC8LBWuma4cn-53" value="location" style="ellipse;whiteSpace=wrap;html=1;" vertex="1" parent="1">
          <mxGeometry x="1100" y="2417.5" width="100" height="45" as="geometry" />
        </mxCell>
        <mxCell id="_jA5AKYHCC8LBWuma4cn-54" style="rounded=0;orthogonalLoop=1;jettySize=auto;html=1;entryX=0.5;entryY=0;entryDx=0;entryDy=0;endArrow=none;endFill=0;exitX=0.5;exitY=1;exitDx=0;exitDy=0;" edge="1" parent="1" source="_jA5AKYHCC8LBWuma4cn-55" target="_jA5AKYHCC8LBWuma4cn-56">
          <mxGeometry relative="1" as="geometry">
            <mxPoint x="613.1424999999999" y="2310" as="sourcePoint" />
            <mxPoint x="569.9950000000001" y="2420" as="targetPoint" />
          </mxGeometry>
        </mxCell>
        <mxCell id="_jA5AKYHCC8LBWuma4cn-55" value="Employe" style="rounded=0;whiteSpace=wrap;html=1;" vertex="1" parent="1">
          <mxGeometry x="560" y="2250" width="120" height="60" as="geometry" />
        </mxCell>
        <mxCell id="_jA5AKYHCC8LBWuma4cn-56" value="&lt;u&gt;Employee_ID&lt;/u&gt;" style="ellipse;whiteSpace=wrap;html=1;" vertex="1" parent="1">
          <mxGeometry x="500" y="2420" width="100" height="40" as="geometry" />
        </mxCell>
        <mxCell id="_jA5AKYHCC8LBWuma4cn-57" style="rounded=0;orthogonalLoop=1;jettySize=auto;html=1;endArrow=none;endFill=0;exitX=0.5;exitY=1;exitDx=0;exitDy=0;" edge="1" parent="1" source="_jA5AKYHCC8LBWuma4cn-55" target="_jA5AKYHCC8LBWuma4cn-58">
          <mxGeometry relative="1" as="geometry">
            <mxPoint x="623.1424999999999" y="2320" as="sourcePoint" />
            <mxPoint x="740" y="2410" as="targetPoint" />
          </mxGeometry>
        </mxCell>
        <mxCell id="_jA5AKYHCC8LBWuma4cn-58" value="Employee_Name" style="ellipse;whiteSpace=wrap;html=1;" vertex="1" parent="1">
          <mxGeometry x="660" y="2417.5" width="100" height="45" as="geometry" />
        </mxCell>
        <mxCell id="_jA5AKYHCC8LBWuma4cn-59" value="" style="rounded=0;orthogonalLoop=1;jettySize=auto;html=1;endArrow=none;endFill=0;" edge="1" parent="1" source="_jA5AKYHCC8LBWuma4cn-63" target="_jA5AKYHCC8LBWuma4cn-50">
          <mxGeometry relative="1" as="geometry" />
        </mxCell>
        <mxCell id="_jA5AKYHCC8LBWuma4cn-60" value="1" style="edgeLabel;html=1;align=center;verticalAlign=middle;resizable=0;points=[];" vertex="1" connectable="0" parent="_jA5AKYHCC8LBWuma4cn-59">
          <mxGeometry x="-0.1778" y="1" relative="1" as="geometry">
            <mxPoint as="offset" />
          </mxGeometry>
        </mxCell>
        <mxCell id="_jA5AKYHCC8LBWuma4cn-61" style="rounded=0;orthogonalLoop=1;jettySize=auto;html=1;entryX=1;entryY=0.5;entryDx=0;entryDy=0;endArrow=none;endFill=0;strokeWidth=3;" edge="1" parent="1" source="_jA5AKYHCC8LBWuma4cn-63" target="_jA5AKYHCC8LBWuma4cn-55">
          <mxGeometry relative="1" as="geometry" />
        </mxCell>
        <mxCell id="_jA5AKYHCC8LBWuma4cn-62" value="M" style="edgeLabel;html=1;align=center;verticalAlign=middle;resizable=0;points=[];" vertex="1" connectable="0" parent="_jA5AKYHCC8LBWuma4cn-61">
          <mxGeometry x="0.106" y="-1" relative="1" as="geometry">
            <mxPoint x="10" y="10" as="offset" />
          </mxGeometry>
        </mxCell>
        <mxCell id="_jA5AKYHCC8LBWuma4cn-63" value="work" style="rhombus;whiteSpace=wrap;html=1;rounded=0;" vertex="1" parent="1">
          <mxGeometry x="820" y="2320" width="80" height="80" as="geometry" />
        </mxCell>
        <mxCell id="_jA5AKYHCC8LBWuma4cn-64" style="rounded=0;orthogonalLoop=1;jettySize=auto;html=1;strokeWidth=1;endArrow=none;endFill=0;" edge="1" parent="1" source="_jA5AKYHCC8LBWuma4cn-66" target="_jA5AKYHCC8LBWuma4cn-55">
          <mxGeometry relative="1" as="geometry" />
        </mxCell>
        <mxCell id="_jA5AKYHCC8LBWuma4cn-65" style="rounded=0;orthogonalLoop=1;jettySize=auto;html=1;endArrow=none;endFill=0;strokeWidth=3;" edge="1" parent="1" source="_jA5AKYHCC8LBWuma4cn-66" target="_jA5AKYHCC8LBWuma4cn-50">
          <mxGeometry relative="1" as="geometry" />
        </mxCell>
        <mxCell id="_jA5AKYHCC8LBWuma4cn-66" value="manage" style="rhombus;whiteSpace=wrap;html=1;rounded=0;" vertex="1" parent="1">
          <mxGeometry x="820" y="2120" width="80" height="80" as="geometry" />
        </mxCell>
        <mxCell id="_jA5AKYHCC8LBWuma4cn-67" value="Property" style="rounded=0;whiteSpace=wrap;html=1;" vertex="1" parent="1">
          <mxGeometry x="1413.5" y="2250" width="120" height="60" as="geometry" />
        </mxCell>
        <mxCell id="_jA5AKYHCC8LBWuma4cn-68" value="&lt;u&gt;Property_ID&lt;/u&gt;" style="ellipse;whiteSpace=wrap;html=1;" vertex="1" parent="1">
          <mxGeometry x="1393.5" y="2462.5" width="100" height="40" as="geometry" />
        </mxCell>
        <mxCell id="_jA5AKYHCC8LBWuma4cn-69" style="rounded=0;orthogonalLoop=1;jettySize=auto;html=1;entryX=0.5;entryY=0;entryDx=0;entryDy=0;endArrow=none;endFill=0;" edge="1" parent="1" source="_jA5AKYHCC8LBWuma4cn-73" target="_jA5AKYHCC8LBWuma4cn-76">
          <mxGeometry relative="1" as="geometry" />
        </mxCell>
        <mxCell id="_jA5AKYHCC8LBWuma4cn-70" style="rounded=0;orthogonalLoop=1;jettySize=auto;html=1;entryX=0.5;entryY=0;entryDx=0;entryDy=0;endArrow=none;endFill=0;" edge="1" parent="1" source="_jA5AKYHCC8LBWuma4cn-73" target="_jA5AKYHCC8LBWuma4cn-77">
          <mxGeometry relative="1" as="geometry" />
        </mxCell>
        <mxCell id="_jA5AKYHCC8LBWuma4cn-71" style="rounded=0;orthogonalLoop=1;jettySize=auto;html=1;endArrow=none;endFill=0;" edge="1" parent="1" source="_jA5AKYHCC8LBWuma4cn-73" target="_jA5AKYHCC8LBWuma4cn-78">
          <mxGeometry relative="1" as="geometry" />
        </mxCell>
        <mxCell id="_jA5AKYHCC8LBWuma4cn-72" style="rounded=0;orthogonalLoop=1;jettySize=auto;html=1;endArrow=none;endFill=0;" edge="1" parent="1" source="_jA5AKYHCC8LBWuma4cn-73" target="_jA5AKYHCC8LBWuma4cn-79">
          <mxGeometry relative="1" as="geometry" />
        </mxCell>
        <mxCell id="_jA5AKYHCC8LBWuma4cn-73" value="location" style="ellipse;whiteSpace=wrap;html=1;" vertex="1" parent="1">
          <mxGeometry x="1543.5" y="2462.5" width="100" height="45" as="geometry" />
        </mxCell>
        <mxCell id="_jA5AKYHCC8LBWuma4cn-74" style="rounded=0;orthogonalLoop=1;jettySize=auto;html=1;endArrow=none;endFill=0;exitX=0.5;exitY=1;exitDx=0;exitDy=0;" edge="1" parent="1" source="_jA5AKYHCC8LBWuma4cn-67" target="_jA5AKYHCC8LBWuma4cn-73">
          <mxGeometry relative="1" as="geometry">
            <mxPoint x="1833.5" y="2032.5" as="sourcePoint" />
            <mxPoint x="1898.5" y="2272.5" as="targetPoint" />
          </mxGeometry>
        </mxCell>
        <mxCell id="_jA5AKYHCC8LBWuma4cn-75" style="rounded=0;orthogonalLoop=1;jettySize=auto;html=1;entryX=0.5;entryY=0;entryDx=0;entryDy=0;endArrow=none;endFill=0;exitX=0.5;exitY=1;exitDx=0;exitDy=0;" edge="1" parent="1" source="_jA5AKYHCC8LBWuma4cn-67" target="_jA5AKYHCC8LBWuma4cn-68">
          <mxGeometry relative="1" as="geometry">
            <mxPoint x="1723.5" y="2280" as="sourcePoint" />
            <mxPoint x="1728.4950000000001" y="2282.5" as="targetPoint" />
          </mxGeometry>
        </mxCell>
        <mxCell id="_jA5AKYHCC8LBWuma4cn-76" value="Address" style="ellipse;whiteSpace=wrap;html=1;" vertex="1" parent="1">
          <mxGeometry x="1433.5" y="2540" width="70" height="40" as="geometry" />
        </mxCell>
        <mxCell id="_jA5AKYHCC8LBWuma4cn-77" value="City" style="ellipse;whiteSpace=wrap;html=1;" vertex="1" parent="1">
          <mxGeometry x="1523.5" y="2540" width="70" height="40" as="geometry" />
        </mxCell>
        <mxCell id="_jA5AKYHCC8LBWuma4cn-78" value="State" style="ellipse;whiteSpace=wrap;html=1;" vertex="1" parent="1">
          <mxGeometry x="1613.5" y="2540" width="70" height="40" as="geometry" />
        </mxCell>
        <mxCell id="_jA5AKYHCC8LBWuma4cn-79" value="Zip_Code" style="ellipse;whiteSpace=wrap;html=1;" vertex="1" parent="1">
          <mxGeometry x="1703.5" y="2540" width="70" height="40" as="geometry" />
        </mxCell>
        <mxCell id="_jA5AKYHCC8LBWuma4cn-80" value="" style="edgeStyle=orthogonalEdgeStyle;rounded=0;orthogonalLoop=1;jettySize=auto;html=1;strokeWidth=3;endArrow=none;endFill=0;" edge="1" parent="1" source="_jA5AKYHCC8LBWuma4cn-82" target="_jA5AKYHCC8LBWuma4cn-67">
          <mxGeometry relative="1" as="geometry" />
        </mxCell>
        <mxCell id="_jA5AKYHCC8LBWuma4cn-81" value="M" style="edgeLabel;html=1;align=center;verticalAlign=middle;resizable=0;points=[];" vertex="1" connectable="0" parent="_jA5AKYHCC8LBWuma4cn-80">
          <mxGeometry x="0.1613" relative="1" as="geometry">
            <mxPoint x="-1" as="offset" />
          </mxGeometry>
        </mxCell>
        <mxCell id="_jA5AKYHCC8LBWuma4cn-82" value="have" style="rhombus;whiteSpace=wrap;html=1;rounded=0;" vertex="1" parent="1">
          <mxGeometry x="1210" y="2240" width="80" height="80" as="geometry" />
        </mxCell>
        <mxCell id="_jA5AKYHCC8LBWuma4cn-83" style="rounded=0;orthogonalLoop=1;jettySize=auto;html=1;entryX=0.5;entryY=0;entryDx=0;entryDy=0;endArrow=none;endFill=0;exitX=0.5;exitY=0;exitDx=0;exitDy=0;" edge="1" parent="1" source="_jA5AKYHCC8LBWuma4cn-86" target="_jA5AKYHCC8LBWuma4cn-89">
          <mxGeometry relative="1" as="geometry">
            <mxPoint x="1326.6425" y="1930" as="sourcePoint" />
            <mxPoint x="1283.4950000000001" y="2040" as="targetPoint" />
          </mxGeometry>
        </mxCell>
        <mxCell id="_jA5AKYHCC8LBWuma4cn-84" value="" style="edgeStyle=orthogonalEdgeStyle;rounded=0;orthogonalLoop=1;jettySize=auto;html=1;endArrow=none;endFill=0;strokeWidth=3;" edge="1" parent="1" source="_jA5AKYHCC8LBWuma4cn-86" target="_jA5AKYHCC8LBWuma4cn-92">
          <mxGeometry relative="1" as="geometry" />
        </mxCell>
        <mxCell id="_jA5AKYHCC8LBWuma4cn-85" value="M" style="edgeLabel;html=1;align=center;verticalAlign=middle;resizable=0;points=[];" vertex="1" connectable="0" parent="_jA5AKYHCC8LBWuma4cn-84">
          <mxGeometry x="-0.0106" relative="1" as="geometry">
            <mxPoint as="offset" />
          </mxGeometry>
        </mxCell>
        <mxCell id="_jA5AKYHCC8LBWuma4cn-86" value="Owner" style="rounded=0;whiteSpace=wrap;html=1;" vertex="1" parent="1">
          <mxGeometry x="1413.5" y="1850" width="120" height="60" as="geometry" />
        </mxCell>
        <mxCell id="_jA5AKYHCC8LBWuma4cn-87" style="rounded=0;orthogonalLoop=1;jettySize=auto;html=1;endArrow=none;endFill=0;exitX=0.5;exitY=0;exitDx=0;exitDy=0;" edge="1" parent="1" source="_jA5AKYHCC8LBWuma4cn-86" target="_jA5AKYHCC8LBWuma4cn-88">
          <mxGeometry relative="1" as="geometry">
            <mxPoint x="1336.6425" y="1940" as="sourcePoint" />
            <mxPoint x="1453.5" y="2030" as="targetPoint" />
          </mxGeometry>
        </mxCell>
        <mxCell id="_jA5AKYHCC8LBWuma4cn-88" value="Owner_Name" style="ellipse;whiteSpace=wrap;html=1;" vertex="1" parent="1">
          <mxGeometry x="1473.5" y="1680" width="100" height="45" as="geometry" />
        </mxCell>
        <mxCell id="_jA5AKYHCC8LBWuma4cn-89" value="&lt;u&gt;Owner_ID&lt;/u&gt;" style="ellipse;whiteSpace=wrap;html=1;" vertex="1" parent="1">
          <mxGeometry x="1343.5" y="1685" width="100" height="40" as="geometry" />
        </mxCell>
        <mxCell id="_jA5AKYHCC8LBWuma4cn-90" value="" style="edgeStyle=orthogonalEdgeStyle;rounded=0;orthogonalLoop=1;jettySize=auto;html=1;endArrow=none;endFill=0;strokeWidth=1;" edge="1" parent="1" source="_jA5AKYHCC8LBWuma4cn-92" target="_jA5AKYHCC8LBWuma4cn-67">
          <mxGeometry relative="1" as="geometry">
            <Array as="points">
              <mxPoint x="1473.5" y="2200" />
              <mxPoint x="1473.5" y="2200" />
            </Array>
          </mxGeometry>
        </mxCell>
        <mxCell id="_jA5AKYHCC8LBWuma4cn-91" value="N" style="edgeLabel;html=1;align=center;verticalAlign=middle;resizable=0;points=[];" vertex="1" connectable="0" parent="_jA5AKYHCC8LBWuma4cn-90">
          <mxGeometry x="-0.319" y="-3" relative="1" as="geometry">
            <mxPoint as="offset" />
          </mxGeometry>
        </mxCell>
        <mxCell id="_jA5AKYHCC8LBWuma4cn-92" value="own" style="rhombus;whiteSpace=wrap;html=1;rounded=0;" vertex="1" parent="1">
          <mxGeometry x="1433.5" y="2000" width="80" height="80" as="geometry" />
        </mxCell>
      </root>
    </mxGraphModel>
  </diagram>
</mxfile>
